<?xml version="1.0" standalone="no"?>
<!DOCTYPE svg PUBLIC "-//W3C//DTD SVG 1.1//EN" "http://www.w3.org/Graphics/SVG/1.1/DTD/svg11.dtd">
<svg width="20px" height="20px" version="1.1" xmlns="http://www.w3.org/2000/svg" xmlns:xlink="http://www.w3.org/1999/xlink" xml:space="preserve" style="fill-rule:evenodd;clip-rule:evenodd;stroke-linejoin:round;stroke-miterlimit:1.41421;">
    <g>
        <g id="logo">
            <g id="B">
                <path d="M9.98705,16.0701C9.40673,16.5945 8.39495,16.8554 6.95223,16.8554L7.35523e-16,16.8554L7.35523e-16,3.14435L6.70402,3.14435C8.25064,3.14435 9.28561,3.43154 9.80817,4.00584C10.3429,4.50001 10.6091,5.40165 10.6091,6.71095C10.6091,7.74606 10.425,8.5079 10.0564,8.99588C9.76333,9.35257 9.31253,9.60296 8.70284,9.74579L8.70284,9.81648C9.37287,9.89449 9.87236,10.1064 10.2,10.4529C10.5277,10.7998 10.7315,11.1822 10.8123,11.6003C10.8913,12.0183 10.9317,12.497 10.9317,13.035C10.9317,14.514 10.6162,15.5257 9.98705,16.0701ZM6.91759,8.84844C7.35046,8.77148 7.64531,8.56943 7.80305,8.2436C7.96156,7.91785 8.04098,7.49179 8.04098,6.9649C8.04098,6.45331 7.95822,6.06926 7.79284,5.81367C7.6678,5.65237 7.487,5.5429 7.25093,5.48309C7.01436,5.42401 6.63598,5.394 6.11598,5.394L2.56861,5.394L2.56861,8.88391L6.08199,8.88391C6.48537,8.88391 6.76371,8.87217 6.91759,8.84844ZM6.54313,10.8968L2.56861,10.8968L2.56861,14.606L6.40454,14.606C6.87197,14.606 7.23815,14.5707 7.50557,14.4992C8.06533,14.2907 8.34554,13.7299 8.34554,12.8162C8.34554,12.0607 8.23277,11.5487 8.00635,11.2809C7.74478,11.0252 7.25749,10.8968 6.54313,10.8968Z" style="fill:rgb(119,119,119);"/>
            </g>
            <g id="K">
                <path d="M16.7738,16.8556L10.9393,9.83798L16.3129,3.14435L19.4472,3.14435L14.0448,9.85314L20,16.8556Z" style="fill:rgb(119,119,119);"/>
            </g>
        </g>
    </g>
</svg>
