<svg xmlns="http://www.w3.org/2000/svg" style="display:none"><symbol id="logo"><g><path d="M9.987 16.07c-.58.524-1.592.785-3.035.785H0V3.145h6.704c1.547 0 2.582.287 3.104.86.535.495.8 1.397.8 2.706 0 1.036-.183 1.798-.552 2.286-.293.357-.743.607-1.353.75v.07c.67.078 1.17.29 1.497.637.328.347.532.73.612 1.147.08.418.12.897.12 1.435 0 1.48-.316 2.49-.945 3.035zm-3.07-7.222c.433-.077.728-.28.886-.604.16-.326.238-.752.238-1.28 0-.51-.082-.895-.247-1.15-.125-.162-.306-.27-.542-.33-.236-.06-.614-.09-1.134-.09H2.57v3.49H6.08c.403 0 .682-.012.836-.036zm-.374 2.05H2.57v3.708h3.835c.467 0 .833-.035 1.1-.107.56-.21.84-.77.84-1.684 0-.755-.112-1.267-.34-1.535-.26-.255-.748-.383-1.462-.383z"/><path d="M16.774 16.856L10.94 9.838l5.373-6.694h3.134l-5.402 6.71L20 16.855z"/></g></symbol></svg>